<?xml version="1.0" encoding="UTF-8" standalone="no"?>
<svg
   xmlns:dc="http://purl.org/dc/elements/1.1/"
   xmlns:cc="http://creativecommons.org/ns#"
   xmlns:rdf="http://www.w3.org/1999/02/22-rdf-syntax-ns#"
   xmlns:svg="http://www.w3.org/2000/svg"
   xmlns="http://www.w3.org/2000/svg"
   xmlns:sodipodi="http://sodipodi.sourceforge.net/DTD/sodipodi-0.dtd"
   xmlns:inkscape="http://www.inkscape.org/namespaces/inkscape"
   inkscape:version="1.0 (4035a4fb49, 2020-05-01)"
   inkscape:export-ydpi="95.010307"
   inkscape:export-xdpi="95.010307"
   inkscape:export-filename="C:\Users\HenrikGrotle\source\repos\foos-js-resolve\static\icon-192.png"
   sodipodi:docname="icon.svg"
   id="svg855"
   version="1.1"
   height="194"
   width="194">
  <metadata
     id="metadata861">
    <rdf:RDF>
      <cc:Work
         rdf:about="">
        <dc:format>image/svg+xml</dc:format>
        <dc:type
           rdf:resource="http://purl.org/dc/dcmitype/StillImage" />
        <dc:title></dc:title>
      </cc:Work>
    </rdf:RDF>
  </metadata>
  <defs
     id="defs859" />
  <sodipodi:namedview
     inkscape:current-layer="svg855"
     inkscape:window-maximized="0"
     inkscape:window-y="46"
     inkscape:window-x="235"
     inkscape:cy="97"
     inkscape:cx="97"
     inkscape:zoom="5.1958763"
     showgrid="false"
     id="namedview857"
     inkscape:window-height="1138"
     inkscape:window-width="2235"
     inkscape:pageshadow="2"
     inkscape:pageopacity="0"
     guidetolerance="10"
     gridtolerance="10"
     objecttolerance="10"
     borderopacity="1"
     bordercolor="#666666"
     pagecolor="#ffffff" />
  <circle
     id="circle851"
     r="97"
     cy="97"
     cx="97"
     fill="#000000" />
  <path
     id="path853"
     d="m 94,9.2 a 88,88 0 0 0 -55,21.8 l 27,0 28,-14.4 0,-7.4 z m 6,0 0,7.4 28,14.4 27,0 a 88,88 0 0 0 -55,-21.8 z m -67.2,27.8 a 88,88 0 0 0 -20,34.2 l 16,27.6 23,-3.6 21,-36.2 -8.4,-22 -31.6,0 z m 96.8,0 -8.4,22 21,36.2 23,3.6 15.8,-27.4 a 88,88 0 0 0 -19.8,-34.4 l -31.6,0 z m -50,26 -20.2,35.2 17.8,30.8 39.6,0 17.8,-30.8 -20.2,-35.2 -34.8,0 z m -68.8,16.6 a 88,88 0 0 0 -1.8,17.4 88,88 0 0 0 10.4,41.4 l 7.4,-4.4 -1.4,-29 -14.6,-25.4 z m 172.4,0.2 -14.6,25.2 -1.4,29 7.4,4.4 a 88,88 0 0 0 10.4,-41.4 88,88 0 0 0 -1.8,-17.2 z m -106,57.2 -15.4,19 L 77.2,182.6 a 88,88 0 0 0 19.8,2.4 88,88 0 0 0 19.8,-2.4 l 15.4,-26.6 -15.4,-19 -39.6,0 z m -47.8,2.6 -7,4 A 88,88 0 0 0 68.8,180.4 l -14,-24.6 -25.4,-16.2 z m 135.2,0 -25.4,16.2 -14,24.4 a 88,88 0 0 0 46.4,-36.6 l -7,-4 z"
     fill="#ffffff" />
</svg>
