<?xml version="1.0" encoding="UTF-8" standalone="no"?>
<svg
   xmlns:dc="http://purl.org/dc/elements/1.1/"
   xmlns:cc="http://creativecommons.org/ns#"
   xmlns:rdf="http://www.w3.org/1999/02/22-rdf-syntax-ns#"
   xmlns:svg="http://www.w3.org/2000/svg"
   xmlns="http://www.w3.org/2000/svg"
   xmlns:sodipodi="http://sodipodi.sourceforge.net/DTD/sodipodi-0.dtd"
   xmlns:inkscape="http://www.inkscape.org/namespaces/inkscape"
   width="1024"
   height="1024"
   viewBox="0 0 270.93333 270.93334"
   version="1.1"
   id="svg935"
   inkscape:version="1.0.1 (3bc2e813f5, 2020-09-07)"
   sodipodi:docname="icon-alt-1024.svg">
  <defs
     id="defs929" />
  <sodipodi:namedview
     id="base"
     pagecolor="#ffffff"
     bordercolor="#666666"
     borderopacity="1.0"
     inkscape:pageopacity="0.0"
     inkscape:pageshadow="2"
     inkscape:zoom="0.35"
     inkscape:cx="400"
     inkscape:cy="560"
     inkscape:document-units="mm"
     inkscape:current-layer="layer1"
     inkscape:document-rotation="0"
     showgrid="false"
     units="px"
     inkscape:window-width="1267"
     inkscape:window-height="1198"
     inkscape:window-x="286"
     inkscape:window-y="163"
     inkscape:window-maximized="0" />
  <metadata
     id="metadata932">
    <rdf:RDF>
      <cc:Work
         rdf:about="">
        <dc:format>image/svg+xml</dc:format>
        <dc:type
           rdf:resource="http://purl.org/dc/dcmitype/StillImage" />
        <dc:title></dc:title>
      </cc:Work>
    </rdf:RDF>
  </metadata>
  <g
     inkscape:label="Layer 1"
     inkscape:groupmode="layer"
     id="layer1">
    <g
       id="g873"
       style="fill:#ffffff"
       transform="scale(1.3965636)">
      <circle
         id="circle851"
         r="97"
         cy="97"
         cx="97"
         fill="#000000"
         style="fill:#cccccc" />
      <path
         id="path853"
         d="M 94,9.2 A 88,88 0 0 0 39,31 H 66 L 94,16.6 Z m 6,0 v 7.4 L 128,31 h 27 A 88,88 0 0 0 100,9.2 Z M 32.8,37 a 88,88 0 0 0 -20,34.2 l 16,27.6 23,-3.6 21,-36.2 -8.4,-22 z m 96.8,0 -8.4,22 21,36.2 23,3.6 L 181,71.4 A 88,88 0 0 0 161.2,37 Z M 79.6,63 59.4,98.2 77.2,129 h 39.6 L 134.6,98.2 114.4,63 Z M 10.8,79.6 A 88,88 0 0 0 9,97 88,88 0 0 0 19.4,138.4 l 7.4,-4.4 -1.4,-29 z m 172.4,0.2 -14.6,25.2 -1.4,29 7.4,4.4 A 88,88 0 0 0 185,97 88,88 0 0 0 183.2,79.8 Z M 77.2,137 61.8,156 77.2,182.6 A 88,88 0 0 0 97,185 88,88 0 0 0 116.8,182.6 L 132.2,156 116.8,137 Z m -47.8,2.6 -7,4 a 88,88 0 0 0 46.4,36.8 l -14,-24.6 z m 135.2,0 -25.4,16.2 -14,24.4 a 88,88 0 0 0 46.4,-36.6 z"
         fill="#ffffff"
         style="fill:#f9f9f9" />
    </g>
    <g
       id="f"
       transform="matrix(12.45052,0,0,12.45052,66.278193,30.290713)">
      <path
         id="insert-f"
         d="M 3.56469,16.6018 V 8.20228 H 0.311936 V 5.67797 H 3.56469 V 3.82382 c 0,-1.07227 0.34466,-1.9286 1.03399,-2.56899 C 5.28801,0.614443 6.19993,0.29425 7.33444,0.29425 h 3.46816 v 2.4573 H 7.39907 C 7.0544,2.75155 6.77437,2.8558 6.55895,3.0643 6.3579,3.2579 6.25737,3.52597 6.25737,3.8685 V 5.67797 H 10.8026 V 8.20228 H 6.25737 v 8.39952 z"
         style="fill:#ffffff" />
      <path
         id="outline-f"
         d="M 7.33372,0.0387298 C 6.14993,0.0387298 5.16214,0.381601 4.42131,1.06983 3.67959,1.7589 3.30555,2.69831 3.30555,3.82447 V 5.42381 H 0.053646 v 3.0331 H 3.30555 V 16.8563 H 3.56494 6.5155 V 8.45691 h 4.545 V 5.42381 H 6.5155 V 3.86774 c 0,-0.29333 0.0766,-0.4798 0.22315,-0.62092 H 6.74056 C 6.9068,3.08592 7.10672,3.00598 7.39857,3.00598 H 11.0605 V 0.0387298 Z m 0,0.5099072 H 10.5437 V 2.49607 H 7.39857 C 7.0011,2.49607 6.64276,2.6257 6.37818,2.88179 6.12262,3.12788 5.99863,3.47601 5.99863,3.86774 V 5.93371 H 10.5437 V 7.947 H 5.99863 v 8.3994 H 3.82243 V 7.947 H 0.570518 V 5.93371 H 3.82243 V 3.82447 c 0,-1.0184 0.31671,-1.79225 0.95363,-2.38396 C 5.41389,0.847966 6.24849,0.548637 7.33372,0.548637 Z"
         style="fill:#000000" />
    </g>
  </g>
</svg>
