<?xml version="1.0" encoding="UTF-8" standalone="no"?>
<svg xmlns="http://www.w3.org/2000/svg" width="148" height="64" viewBox="0 0 39.158332 16.933334" version="1.1" id="svg8">
   <defs id="defs2" />
   <g id="layer1" inkscape:groupmode="layer" inkscape:label="Layer 1">
      <g id="f">
         <path 
            id="insert-f" 
            d="M 3.56469,16.6018 V 8.20228 H 0.311936 V 5.67797 H 3.56469 V 3.82382 c 0,-1.07227 0.34466,-1.9286 1.03399,-2.56899 C 5.28801,0.614443 6.19993,0.29425 7.33444,0.29425 h 3.46816 v 2.4573 H 7.39907 C 7.0544,2.75155 6.77437,2.8558 6.55895,3.0643 6.3579,3.2579 6.25737,3.52597 6.25737,3.8685 V 5.67797 H 10.8026 V 8.20228 H 6.25737 v 8.39952 z" 
            style="fill:#ffffff;" />
         <path 
            id="outline-f" 
            d="M 7.33372,0.0387298 C 6.14993,0.0387298 5.16214,0.381601 4.42131,1.06983 3.67959,1.7589 3.30555,2.69831 3.30555,3.82447 V 5.42381 H 0.053646 v 3.0331 H 3.30555 V 16.8563 H 3.56494 6.5155 V 8.45691 h 4.545 V 5.42381 H 6.5155 V 3.86774 c 0,-0.29333 0.0766,-0.4798 0.22315,-0.62092 H 6.74056 C 6.9068,3.08592 7.10672,3.00598 7.39857,3.00598 H 11.0605 V 0.0387298 Z m 0,0.5099072 H 10.5437 V 2.49607 H 7.39857 C 7.0011,2.49607 6.64276,2.6257 6.37818,2.88179 6.12262,3.12788 5.99863,3.47601 5.99863,3.86774 V 5.93371 H 10.5437 V 7.947 H 5.99863 v 8.3994 H 3.82243 V 7.947 H 0.570518 V 5.93371 H 3.82243 V 3.82447 c 0,-1.0184 0.31671,-1.79225 0.95363,-2.38396 C 5.41389,0.847966 6.24849,0.548637 7.33372,0.548637 Z" 
            style="fill:#000000" />
      </g>
      <g id="o2">
         <path id="path963" style="fill:#000000" d="M 29.5414 10.423 C 29.5414 13.9146 26.7109 16.745 23.2194 16.745 C 21.5427 16.745 19.9346 16.079 18.749 14.8934 C 17.5634 13.7078 16.8974 12.0997 16.8974 10.423 C 16.8974 8.74635 17.5634 7.13832 18.749 5.95272 C 19.9346 4.76711 21.5427 4.10104 23.2194 4.10104 C 26.7109 4.10104 29.5414 6.9315 29.5414 10.423" />
         <path id="path965" d="M 23.0238 4.52547 C 21.7008 4.57265 20.4343 5.08991 19.4392 5.98981 L 21.1989 5.98981 L 23.0238 5.0227 Z M 23.4149 4.52547 L 23.4149 5.0227 L 25.2399 5.98981 L 26.9996 5.98981 C 26.0045 5.08991 24.738 4.57265 23.4149 4.52547 Z M 19.0351 6.39289 C 18.4368 7.04647 17.991 7.83218 17.7316 8.69012 L 18.7744 10.544 L 20.2735 10.302 L 21.6421 7.87059 L 21.0947 6.39289 Z M 25.344 6.39289 L 24.7967 7.87059 L 26.1653 10.302 L 27.6644 10.544 L 28.6941 8.70348 C 28.4403 7.842 27.999 7.05169 27.4037 6.39289 Z M 22.0852 8.13925 L 20.7688 10.5037 L 21.9289 12.5726 L 24.5099 12.5726 L 25.6699 10.5037 L 24.3533 8.13925 Z M 17.6013 9.25436 C 17.5246 9.63886 17.4853 10.0305 17.4839 10.4231 C 17.485 11.3934 17.7178 12.3484 18.1618 13.2038 L 18.6441 12.9084 L 18.5528 10.9604 Z M 28.8375 9.26772 L 27.8859 10.9604 L 27.7946 12.9084 L 28.2771 13.2038 C 28.721 12.3484 28.9538 11.3934 28.9548 10.4231 C 28.9525 10.0349 28.9133 9.64784 28.8375 9.26772 Z M 21.9289 13.1099 L 20.9252 14.3861 L 21.9289 16.1728 C 22.3518 16.2767 22.7846 16.3308 23.2193 16.3339 C 23.6541 16.3308 24.087 16.2767 24.5099 16.1728 L 25.5135 14.3861 L 24.5099 13.1099 Z M 18.8135 13.2844 L 18.3573 13.5532 C 19.058 14.7124 20.1266 15.5858 21.3814 16.025 L 20.469 14.3726 Z M 27.6253 13.2844 L 25.9699 14.3726 L 25.0574 16.0116 C 26.3101 15.576 27.3786 14.7074 28.0814 13.5532 Z" fill="#ffffff" />
      </g>
      <g id="o1">
         <path id="circle-o1" d="M 22.8529 10.4715 C 22.8529 13.9631 20.0224 16.7935 16.5309 16.7935 C 14.8542 16.7935 13.2461 16.1275 12.0605 14.9419 C 10.8749 13.7563 10.2089 12.1482 10.2089 10.4715 C 10.2089 8.79485 10.8749 7.18682 12.0605 6.00122 C 13.2461 4.81561 14.8542 4.14954 16.5309 4.14954 C 20.0224 4.14954 22.8529 6.98 22.8529 10.4715" style="fill:#000000" />
         <path id="patches-o1" fill="#ffffff" d="M 16.3353 4.57397 C 15.0123 4.62115 13.7458 5.13841 12.7507 6.03831 L 14.5104 6.03831 L 16.3353 5.0712 Z M 16.7264 4.57397 L 16.7264 5.0712 L 18.5514 6.03831 L 20.3111 6.03831 C 19.316 5.13841 18.0495 4.62115 16.7264 4.57397 Z M 12.3466 6.44139 C 11.7483 7.09497 11.3025 7.88068 11.0431 8.73862 L 12.0859 10.5925 L 13.585 10.3505 L 14.9536 7.91909 L 14.4062 6.44139 Z M 18.6555 6.44139 L 18.1082 7.91909 L 19.4768 10.3505 L 20.9759 10.5925 L 22.0056 8.75198 C 21.7518 7.8905 21.3105 7.10019 20.7152 6.44139 Z M 15.3967 8.18775 L 14.0803 10.5522 L 15.2404 12.6211 L 17.8214 12.6211 L 18.9814 10.5522 L 17.6648 8.18775 Z M 10.9128 9.30286 C 10.8361 9.68736 10.7968 10.079 10.7954 10.4716 C 10.7965 11.4419 11.0293 12.3969 11.4733 13.2523 L 11.9556 12.9569 L 11.8643 11.0089 Z M 22.149 9.31622 L 21.1974 11.0089 L 21.1061 12.9569 L 21.5886 13.2523 C 22.0325 12.3969 22.2653 11.4419 22.2663 10.4716 C 22.264 10.0834 22.2248 9.69634 22.149 9.31622 Z M 15.2404 13.1584 L 14.2367 14.4346 L 15.2404 16.2213 C 15.6633 16.3252 16.0961 16.3793 16.5308 16.3824 C 16.9656 16.3793 17.3985 16.3252 17.8214 16.2213 L 18.825 14.4346 L 17.8214 13.1584 Z M 12.125 13.3329 L 11.6688 13.6017 C 12.3695 14.7609 13.4381 15.6343 14.6929 16.0735 L 13.7805 14.4211 Z M 20.9368 13.3329 L 19.2814 14.4211 L 18.3689 16.0601 C 19.6216 15.6245 20.6901 14.7559 21.3929 13.6017 Z" />
      </g>
      <g id="s">
         <path id="path997" d="M 33.4832 16.6545 C 32.5748 16.6545 31.7817 16.5101 31.104 16.2213 C 30.4262 15.9325 29.8927 15.5354 29.5034 15.03 C 29.1285 14.5101 28.9266 13.9036 28.8978 13.2104 L 31.6014 13.2104 C 31.6303 13.5859 31.8105 13.8892 32.1422 14.1202 C 32.4882 14.3512 32.9353 14.4668 33.4832 14.4668 L 34.4349 14.4668 C 35.0982 14.4668 35.5957 14.3368 35.9273 14.0769 C 36.259 13.8169 36.4248 13.4632 36.4248 13.0155 C 36.4248 12.5967 36.2734 12.2718 35.9706 12.0408 C 35.6822 11.7953 35.228 11.6364 34.6079 11.5642 L 33.1371 11.3476 C 31.7817 11.1599 30.7867 10.7989 30.1523 10.2646 C 29.5178 9.73026 29.2006 8.9288 29.2006 7.8602 C 29.2006 6.74827 29.5755 5.88906 30.3253 5.28255 C 31.0751 4.66161 32.1782 4.35114 33.6346 4.35114 L 34.4565 4.35114 C 35.7831 4.35114 36.843 4.64717 37.636 5.23923 C 38.4291 5.8313 38.8545 6.62553 38.9122 7.62193 L 36.2085 7.62193 C 36.1653 7.30424 35.985 7.04431 35.6678 6.84214 C 35.365 6.63997 34.9612 6.53889 34.4565 6.53889 L 33.6346 6.53889 C 33.0146 6.53889 32.5603 6.65441 32.2719 6.88546 C 31.998 7.10207 31.861 7.42698 31.861 7.8602 C 31.861 8.26454 31.9836 8.56779 32.2287 8.76996 C 32.4738 8.95769 32.8704 9.09487 33.4183 9.18152 L 34.954 9.39812 C 36.3671 9.60029 37.4053 9.98297 38.0686 10.5462 C 38.7463 11.0949 39.0852 11.9108 39.0852 12.9938 C 39.0852 14.1491 38.6887 15.0516 37.8956 15.7014 C 37.1169 16.3368 35.9634 16.6545 34.4349 16.6545 Z" style="-inkscape-font-specification:'JetBrains Mono Bold';baseline-shift:baseline;clip-rule:nonzero;color:#000000;color-interpolation:sRGB;color-interpolation-filters:linearRGB;color-rendering:auto;direction:ltr;display:inline;dominant-baseline:auto;enable-background:accumulate;fill:#ffffff;fill-opacity:1;fill-rule:nonzero;font-family:'JetBrains Mono';font-feature-settings:normal;font-size:109.858px;font-stretch:normal;font-style:normal;font-variant:normal;font-variant-alternates:normal;font-variant-caps:normal;font-variant-east-asian:normal;font-variant-ligatures:normal;font-variant-numeric:normal;font-variant-position:normal;font-variation-settings:normal;font-weight:bold;image-rendering:auto;inline-size:0;isolation:auto;letter-spacing:normal;line-height:1.25;mix-blend-mode:normal;overflow:visible;shape-margin:0;shape-padding:0;shape-rendering:auto;solid-color:#000000;solid-opacity:1;stop-color:#000000;stop-opacity:1;stroke:none;stroke-dasharray:none;stroke-dashoffset:0;stroke-linecap:butt;stroke-linejoin:miter;stroke-miterlimit:4;stroke-opacity:1;stroke-width:0.507051;text-align:start;text-anchor:start;text-decoration:none;text-decoration-color:#000000;text-decoration-line:none;text-decoration-style:solid;text-indent:0;text-orientation:mixed;text-rendering:auto;text-transform:none;vector-effect:none;visibility:visible;white-space:normal;word-spacing:normal;writing-mode:lr-tb" />
         <path id="path999" d="M 33.6346 4.10104 C 32.1417 4.10104 30.9726 4.41818 30.1603 5.08988 C 29.3511 5.74443 28.9433 6.69432 28.9433 7.86084 C 28.9433 8.9775 29.2851 9.86454 29.9837 10.4528 C 30.675 11.035 31.7167 11.4031 33.0992 11.5948 L 34.5725 11.8125 L 34.5782 11.8125 C 35.1687 11.8813 35.5718 12.0344 35.8009 12.2294 L 35.8066 12.2331 L 35.8123 12.2368 C 36.0558 12.4226 36.1674 12.6551 36.1674 13.0153 C 36.1674 13.403 36.0423 13.6665 35.7668 13.8824 C 35.5003 14.0912 35.0646 14.2163 34.4359 14.2163 L 33.4828 14.2163 C 32.9728 14.2163 32.5843 14.1094 32.2905 13.9138 C 32.0125 13.7188 31.8813 13.4993 31.8577 13.1924 L 31.8406 12.96 L 28.6301 12.96 L 28.6415 13.2201 C 28.672 13.9544 28.8887 14.6136 29.2926 15.1738 L 29.2946 15.1775 L 29.2984 15.1794 C 29.7165 15.7222 30.2897 16.1472 31.0014 16.4505 C 31.7178 16.7558 32.5463 16.9043 33.4828 16.9043 L 34.4358 16.9043 C 36.001 16.9043 37.218 16.5805 38.0601 15.8933 L 38.0621 15.8933 C 38.9126 15.1964 39.3417 14.204 39.3417 12.9932 C 39.3417 11.8595 38.9746 10.9556 38.2329 10.3551 C 37.5129 9.74608 36.4303 9.35615 34.992 9.15038 L 33.4599 8.93454 C 32.9378 8.85198 32.5809 8.71721 32.393 8.57479 C 32.215 8.42594 32.1177 8.2134 32.1177 7.86084 C 32.1177 7.47881 32.2259 7.24375 32.4347 7.07862 C 32.6533 6.9035 33.0474 6.78898 33.6346 6.78898 L 34.4567 6.78898 C 34.926 6.78898 35.2739 6.88179 35.5217 7.04726 L 35.5237 7.0491 L 35.5275 7.05094 C 35.7975 7.22305 35.9193 7.40845 35.9527 7.65421 L 35.9831 7.8719 L 39.184 7.8719 L 39.1688 7.60809 C 39.1076 6.55034 38.6383 5.67346 37.7924 5.04191 C 36.9444 4.40883 35.8226 4.10104 34.4567 4.10104 Z M 33.6346 4.60099 L 34.4567 4.60099 C 35.7439 4.60099 36.741 4.88566 37.4791 5.43671 C 38.1407 5.9306 38.4751 6.5781 38.586 7.37195 L 36.3134 7.37195 C 36.2099 7.09263 36.0897 6.81326 35.8084 6.63401 C 35.4513 6.39727 34.9944 6.28903 34.4567 6.28903 L 33.6346 6.28903 C 32.9824 6.28903 32.4682 6.4068 32.1101 6.69305 C 31.7719 6.96117 31.6032 7.37707 31.6032 7.86084 C 31.6032 8.31425 31.753 8.70501 32.0626 8.96036 L 32.0664 8.96406 L 32.0702 8.9659 C 32.3734 9.19809 32.8054 9.33866 33.3764 9.42896 L 33.3783 9.42896 L 34.9161 9.6448 C 36.3009 9.84292 37.2921 10.22 37.8987 10.7351 L 37.9025 10.737 L 37.9045 10.7389 C 38.5183 11.2359 38.8272 11.9609 38.8272 12.9933 C 38.8272 14.093 38.4655 14.9069 37.7298 15.5097 C 37.0146 16.0933 35.9277 16.4044 34.4358 16.4044 L 33.4828 16.4044 C 32.6024 16.4044 31.8455 16.2653 31.2064 15.993 C 30.5654 15.7198 30.0743 15.3513 29.7142 14.8861 L 29.7142 14.8842 C 29.4223 14.479 29.3058 13.9857 29.2414 13.4599 L 31.4817 13.4599 C 31.5724 13.788 31.6906 14.1131 31.9924 14.3233 L 31.9943 14.3252 L 31.9962 14.3271 C 32.3945 14.593 32.8977 14.7164 33.4828 14.7164 L 34.4359 14.7164 C 35.1337 14.7164 35.6926 14.5828 36.0895 14.2718 C 36.4773 13.9678 36.6818 13.5231 36.6818 13.0154 C 36.6818 12.5405 36.4917 12.1258 36.1332 11.8495 C 35.7856 11.5564 35.2851 11.3916 34.639 11.3163 L 34.6466 11.3163 L 33.1752 11.1005 L 33.1733 11.1005 C 31.846 10.9167 30.8989 10.5627 30.3217 10.0766 C 29.7514 9.59629 29.4579 8.88147 29.4579 7.86092 C 29.4579 6.80359 29.8002 6.034 30.4907 5.47554 L 30.4907 5.4737 L 30.4926 5.4737 C 31.1798 4.90456 32.2159 4.60109 33.6347 4.60109 Z" style="-inkscape-font-specification:'JetBrains Mono Bold';baseline-shift:baseline;clip-rule:nonzero;color:#000000;color-interpolation:sRGB;color-interpolation-filters:linearRGB;color-rendering:auto;direction:ltr;display:inline;dominant-baseline:auto;enable-background:accumulate;fill:#000000;fill-opacity:1;fill-rule:nonzero;font-family:'JetBrains Mono';font-feature-settings:normal;font-size:109.858px;font-stretch:normal;font-style:normal;font-variant:normal;font-variant-alternates:normal;font-variant-caps:normal;font-variant-east-asian:normal;font-variant-ligatures:normal;font-variant-numeric:normal;font-variant-position:normal;font-variation-settings:normal;font-weight:bold;image-rendering:auto;inline-size:0;isolation:auto;letter-spacing:normal;line-height:1.25;mix-blend-mode:normal;overflow:visible;shape-margin:0;shape-padding:0;shape-rendering:auto;solid-color:#000000;solid-opacity:1;stop-color:#000000;stop-opacity:1;stroke:none;stroke-dasharray:none;stroke-dashoffset:0;stroke-linecap:butt;stroke-linejoin:miter;stroke-miterlimit:4;stroke-opacity:1;stroke-width:0.507051;text-align:start;text-anchor:start;text-decoration:none;text-decoration-color:#000000;text-decoration-line:none;text-decoration-style:solid;text-indent:0;text-orientation:mixed;text-rendering:auto;text-transform:none;vector-effect:none;visibility:visible;white-space:normal;word-spacing:normal;writing-mode:lr-tb" />
      </g>
   </g>
</svg>
