<?xml version="1.0" encoding="UTF-8" standalone="no"?>
<svg
   xmlns:dc="http://purl.org/dc/elements/1.1/"
   xmlns:cc="http://creativecommons.org/ns#"
   xmlns:rdf="http://www.w3.org/1999/02/22-rdf-syntax-ns#"
   xmlns:svg="http://www.w3.org/2000/svg"
   xmlns="http://www.w3.org/2000/svg"
   xmlns:sodipodi="http://sodipodi.sourceforge.net/DTD/sodipodi-0.dtd"
   xmlns:inkscape="http://www.inkscape.org/namespaces/inkscape"
   sodipodi:docname="logo.svg"
   inkscape:version="1.0 (4035a4fb49, 2020-05-01)"
   id="svg8"
   version="1.1"
   viewBox="0 0 50.799999 16.933334"
   height="64"
   width="192">
  <defs
     id="defs2" />
  <sodipodi:namedview
     units="px"
     inkscape:window-maximized="0"
     inkscape:window-y="372"
     inkscape:window-x="689"
     inkscape:window-height="789"
     inkscape:window-width="1705"
     inkscape:guide-bbox="true"
     showguides="true"
     showgrid="false"
     inkscape:document-rotation="0"
     inkscape:current-layer="layer1"
     inkscape:document-units="mm"
     inkscape:cy="33.98796"
     inkscape:cx="58.522697"
     inkscape:zoom="5.6568542"
     inkscape:pageshadow="2"
     inkscape:pageopacity="0.0"
     borderopacity="1.0"
     bordercolor="#666666"
     pagecolor="#ffffff"
     id="base"
     inkscape:snap-others="true"
     inkscape:object-nodes="false"
     inkscape:snap-smooth-nodes="true">
    <sodipodi:guide
       id="guide882"
       orientation="0,-1"
       position="161.39583,148.46292" />
    <sodipodi:guide
       id="guide1001"
       orientation="0,-1"
       position="38.298437,12.832292" />
  </sodipodi:namedview>
  <metadata
     id="metadata5">
    <rdf:RDF>
      <cc:Work
         rdf:about="">
        <dc:format>image/svg+xml</dc:format>
        <dc:type
           rdf:resource="http://purl.org/dc/dcmitype/StillImage" />
        <dc:title />
      </cc:Work>
    </rdf:RDF>
  </metadata>
  <g
     id="layer1"
     inkscape:groupmode="layer"
     inkscape:label="Layer 1">
    <g
       id="o1">
      <path
         d="m 25.191472,10.471544 a 6.3219995,6.3219995 0 0 1 -6.321999,6.322 6.3219995,6.3219995 0 0 1 -6.322,-6.322 6.3219995,6.3219995 0 0 1 6.322,-6.3219993 6.3219995,6.3219995 0 0 1 6.321999,6.3219993"
         style="fill:#000000"
         id="circle845" />
      <path
         fill="#ffffff"
         d="M 18.6739 4.57397 C 17.3509 4.62115 16.0844 5.13841 15.0893 6.03831 L 16.849 6.03831 L 18.6739 5.0712 Z M 19.065 4.57397 L 19.065 5.0712 L 20.89 6.03831 L 22.6497 6.03831 C 21.6546 5.13841 20.3881 4.62115 19.065 4.57397 Z M 14.6852 6.44139 C 14.0869 7.09497 13.6411 7.88068 13.3817 8.73862 L 14.4245 10.5925 L 15.9236 10.3505 L 17.2922 7.91909 L 16.7448 6.44139 Z M 20.9941 6.44139 L 20.4468 7.91909 L 21.8154 10.3505 L 23.3145 10.5925 L 24.3442 8.75198 C 24.0904 7.8905 23.6491 7.10019 23.0538 6.44139 Z M 17.7353 8.18775 L 16.4189 10.5522 L 17.579 12.6211 L 20.16 12.6211 L 21.32 10.5522 L 20.0034 8.18775 Z M 13.2514 9.30286 C 13.1747 9.68736 13.1354 10.079 13.134 10.4716 C 13.1351 11.4419 13.3679 12.3969 13.8119 13.2523 L 14.2942 12.9569 L 14.2029 11.0089 Z M 24.4876 9.31622 L 23.536 11.0089 L 23.4447 12.9569 L 23.9272 13.2523 C 24.3711 12.3969 24.6039 11.4419 24.6049 10.4716 C 24.6026 10.0834 24.5634 9.69634 24.4876 9.31622 Z M 17.579 13.1584 L 16.5753 14.4346 L 17.579 16.2213 C 18.0019 16.3252 18.4347 16.3793 18.8694 16.3824 C 19.3042 16.3793 19.7371 16.3252 20.16 16.2213 L 21.1636 14.4346 L 20.16 13.1584 Z M 14.4636 13.3329 L 14.0074 13.6017 C 14.7081 14.7609 15.7767 15.6343 17.0315 16.0735 L 16.1191 14.4211 Z M 23.2754 13.3329 L 21.62 14.4211 L 20.7075 16.0601 C 21.9602 15.6245 23.0287 14.7559 23.7315 13.6017 Z"
         id="path847" />
    </g>
    <g
       style="opacity:1"
       id="g989">
      <path
         id="path991"
         d="M 3.56469 16.6018 L 3.56469 8.20228 L 0.311936 8.20228 L 0.311936 5.67797 L 3.56469 5.67797 L 3.56469 3.82382 C 3.56469 2.75155 3.90935 1.89522 4.59868 1.25483 C 5.28801 0.614443 6.19993 0.29425 7.33444 0.29425 L 10.8026 0.29425 L 10.8026 2.75155 L 7.39907 2.75155 C 7.0544 2.75155 6.77437 2.8558 6.55895 3.0643 C 6.3579 3.2579 6.25737 3.52597 6.25737 3.8685 L 6.25737 5.67797 L 10.8026 5.67797 L 10.8026 8.20228 L 6.25737 8.20228 L 6.25737 16.6018 Z"
         style="-inkscape-font-specification:'JetBrains Mono Bold';baseline-shift:baseline;clip-rule:nonzero;color:#000000;color-interpolation:sRGB;color-interpolation-filters:linearRGB;color-rendering:auto;direction:ltr;display:inline;dominant-baseline:auto;enable-background:accumulate;fill:#ffffff;fill-opacity:1;fill-rule:nonzero;font-family:'JetBrains Mono';font-feature-settings:normal;font-size:109.858px;font-stretch:normal;font-style:normal;font-variant:normal;font-variant-alternates:normal;font-variant-caps:normal;font-variant-east-asian:normal;font-variant-ligatures:normal;font-variant-numeric:normal;font-variant-position:normal;font-variation-settings:normal;font-weight:bold;image-rendering:auto;inline-size:0;isolation:auto;letter-spacing:normal;line-height:1.25;mix-blend-mode:normal;overflow:visible;shape-margin:0;shape-padding:0;shape-rendering:auto;solid-color:#000000;solid-opacity:1;stop-color:#000000;stop-opacity:1;stroke:none;stroke-dasharray:none;stroke-dashoffset:0;stroke-linecap:butt;stroke-linejoin:miter;stroke-miterlimit:4;stroke-opacity:1;stroke-width:0.5132521371501471;text-align:start;text-anchor:start;text-decoration:none;text-decoration-color:#000000;text-decoration-line:none;text-decoration-style:solid;text-indent:0;text-orientation:mixed;text-rendering:auto;text-transform:none;vector-effect:none;visibility:visible;white-space:normal;word-spacing:normal;writing-mode:lr-tb" />
      <path
         id="path993"
         d="M 7.33372 0.0387298 C 6.14993 0.0387298 5.16214 0.381601 4.42131 1.06983 C 3.67959 1.7589 3.30555 2.69831 3.30555 3.82447 L 3.30555 5.42381 L 0.053646 5.42381 L 0.053646 8.45691 L 3.30555 8.45691 L 3.30555 16.8563 L 3.56494 16.8563 L 6.5155 16.8563 L 6.5155 8.45691 L 11.0605 8.45691 L 11.0605 5.42381 L 6.5155 5.42381 L 6.5155 3.86774 C 6.5155 3.57441 6.5921 3.38794 6.73865 3.24682 L 6.74056 3.24682 C 6.9068 3.08592 7.10672 3.00598 7.39857 3.00598 L 11.0605 3.00598 L 11.0605 0.0387298 Z M 7.33372 0.548637 L 10.5437 0.548637 L 10.5437 2.49607 L 7.39857 2.49607 C 7.0011 2.49607 6.64276 2.6257 6.37818 2.88179 C 6.12262 3.12788 5.99863 3.47601 5.99863 3.86774 L 5.99863 5.93371 L 10.5437 5.93371 L 10.5437 7.947 L 5.99863 7.947 L 5.99863 16.3464 L 3.82243 16.3464 L 3.82243 7.947 L 0.570518 7.947 L 0.570518 5.93371 L 3.82243 5.93371 L 3.82243 3.82447 C 3.82243 2.80607 4.13914 2.03222 4.77606 1.44051 C 5.41389 0.847966 6.24849 0.548637 7.33372 0.548637 Z"
         style="-inkscape-font-specification:'JetBrains Mono Bold';baseline-shift:baseline;clip-rule:nonzero;color:#000000;color-interpolation:sRGB;color-interpolation-filters:linearRGB;color-rendering:auto;direction:ltr;display:inline;dominant-baseline:auto;enable-background:accumulate;fill:#000000;fill-opacity:1;fill-rule:nonzero;font-family:'JetBrains Mono';font-feature-settings:normal;font-size:109.858px;font-stretch:normal;font-style:normal;font-variant:normal;font-variant-alternates:normal;font-variant-caps:normal;font-variant-east-asian:normal;font-variant-ligatures:normal;font-variant-numeric:normal;font-variant-position:normal;font-variation-settings:normal;font-weight:bold;image-rendering:auto;inline-size:0;isolation:auto;letter-spacing:normal;line-height:1.25;mix-blend-mode:normal;overflow:visible;shape-margin:0;shape-padding:0;shape-rendering:auto;solid-color:#000000;solid-opacity:1;stop-color:#000000;stop-opacity:1;stroke:none;stroke-dasharray:none;stroke-dashoffset:0;stroke-linecap:butt;stroke-linejoin:miter;stroke-miterlimit:4;stroke-opacity:1;stroke-width:0.5132521371501471;text-align:start;text-anchor:start;text-decoration:none;text-decoration-color:#000000;text-decoration-line:none;text-decoration-style:solid;text-indent:0;text-orientation:mixed;text-rendering:auto;text-transform:none;vector-effect:none;visibility:visible;white-space:normal;word-spacing:normal;writing-mode:lr-tb" />
    </g>
    <g
       style="opacity:1"
       id="g995">
      <path
         id="path997"
         d="M 44.9469 16.6545 C 44.0385 16.6545 43.2454 16.5101 42.5677 16.2213 C 41.8899 15.9325 41.3564 15.5354 40.9671 15.03 C 40.5922 14.5101 40.3903 13.9036 40.3615 13.2104 L 43.0651 13.2104 C 43.094 13.5859 43.2742 13.8892 43.6059 14.1202 C 43.9519 14.3512 44.399 14.4668 44.9469 14.4668 L 45.8986 14.4668 C 46.5619 14.4668 47.0594 14.3368 47.391 14.0769 C 47.7227 13.8169 47.8885 13.4632 47.8885 13.0155 C 47.8885 12.5967 47.7371 12.2718 47.4343 12.0408 C 47.1459 11.7953 46.6917 11.6364 46.0716 11.5642 L 44.6008 11.3476 C 43.2454 11.1599 42.2504 10.7989 41.616 10.2646 C 40.9815 9.73026 40.6643 8.9288 40.6643 7.8602 C 40.6643 6.74827 41.0392 5.88906 41.789 5.28255 C 42.5388 4.66161 43.6419 4.35114 45.0983 4.35114 L 45.9202 4.35114 C 47.2468 4.35114 48.3067 4.64717 49.0997 5.23923 C 49.8928 5.8313 50.3182 6.62553 50.3759 7.62193 L 47.6722 7.62193 C 47.629 7.30424 47.4487 7.04431 47.1315 6.84214 C 46.8287 6.63997 46.4249 6.53889 45.9202 6.53889 L 45.0983 6.53889 C 44.4783 6.53889 44.024 6.65441 43.7356 6.88546 C 43.4617 7.10207 43.3247 7.42698 43.3247 7.8602 C 43.3247 8.26454 43.4473 8.56779 43.6924 8.76996 C 43.9375 8.95769 44.3341 9.09487 44.882 9.18152 L 46.4177 9.39812 C 47.8308 9.60029 48.869 9.98297 49.5323 10.5462 C 50.21 11.0949 50.5489 11.9108 50.5489 12.9938 C 50.5489 14.1491 50.1524 15.0516 49.3593 15.7014 C 48.5806 16.3368 47.4271 16.6545 45.8986 16.6545 Z"
         style="-inkscape-font-specification:'JetBrains Mono Bold';baseline-shift:baseline;clip-rule:nonzero;color:#000000;color-interpolation:sRGB;color-interpolation-filters:linearRGB;color-rendering:auto;direction:ltr;display:inline;dominant-baseline:auto;enable-background:accumulate;fill:#ffffff;fill-opacity:1;fill-rule:nonzero;font-family:'JetBrains Mono';font-feature-settings:normal;font-size:109.858px;font-stretch:normal;font-style:normal;font-variant:normal;font-variant-alternates:normal;font-variant-caps:normal;font-variant-east-asian:normal;font-variant-ligatures:normal;font-variant-numeric:normal;font-variant-position:normal;font-variation-settings:normal;font-weight:bold;image-rendering:auto;inline-size:0;isolation:auto;letter-spacing:normal;line-height:1.25;mix-blend-mode:normal;overflow:visible;shape-margin:0;shape-padding:0;shape-rendering:auto;solid-color:#000000;solid-opacity:1;stop-color:#000000;stop-opacity:1;stroke:none;stroke-dasharray:none;stroke-dashoffset:0;stroke-linecap:butt;stroke-linejoin:miter;stroke-miterlimit:4;stroke-opacity:1;stroke-width:0.5070512255322184;text-align:start;text-anchor:start;text-decoration:none;text-decoration-color:#000000;text-decoration-line:none;text-decoration-style:solid;text-indent:0;text-orientation:mixed;text-rendering:auto;text-transform:none;vector-effect:none;visibility:visible;white-space:normal;word-spacing:normal;writing-mode:lr-tb" />
      <path
         id="path999"
         d="M 45.0983 4.10104 C 43.6054 4.10104 42.4363 4.41818 41.624 5.08988 C 40.8148 5.74443 40.407 6.69432 40.407 7.86084 C 40.407 8.9775 40.7488 9.86454 41.4474 10.4528 C 42.1387 11.035 43.1804 11.4031 44.5629 11.5948 L 46.0362 11.8125 L 46.0419 11.8125 C 46.6324 11.8813 47.0355 12.0344 47.2646 12.2294 L 47.2703 12.2331 L 47.276 12.2368 C 47.5195 12.4226 47.6311 12.6551 47.6311 13.0153 C 47.6311 13.403 47.506 13.6665 47.2305 13.8824 C 46.964 14.0912 46.5283 14.2163 45.8996 14.2163 L 44.9465 14.2163 C 44.4365 14.2163 44.048 14.1094 43.7542 13.9138 C 43.4762 13.7188 43.345 13.4993 43.3214 13.1924 L 43.3043 12.96 L 40.0938 12.96 L 40.1052 13.2201 C 40.1357 13.9544 40.3524 14.6136 40.7563 15.1738 L 40.7583 15.1775 L 40.7621 15.1794 C 41.1802 15.7222 41.7534 16.1472 42.4651 16.4505 C 43.1815 16.7558 44.01 16.9043 44.9465 16.9043 L 45.8995 16.9043 C 47.4647 16.9043 48.6817 16.5805 49.5238 15.8933 L 49.5258 15.8933 C 50.3763 15.1964 50.8054 14.204 50.8054 12.9932 C 50.8054 11.8595 50.4383 10.9556 49.6966 10.3551 C 48.9766 9.74608 47.894 9.35615 46.4557 9.15038 L 44.9236 8.93454 C 44.4015 8.85198 44.0446 8.71721 43.8567 8.57479 C 43.6787 8.42594 43.5814 8.2134 43.5814 7.86084 C 43.5814 7.47881 43.6896 7.24375 43.8984 7.07862 C 44.117 6.9035 44.5111 6.78898 45.0983 6.78898 L 45.9204 6.78898 C 46.3897 6.78898 46.7376 6.88179 46.9854 7.04726 L 46.9874 7.0491 L 46.9912 7.05094 C 47.2612 7.22305 47.383 7.40845 47.4164 7.65421 L 47.4468 7.8719 L 50.6477 7.8719 L 50.6325 7.60809 C 50.5713 6.55034 50.102 5.67346 49.2561 5.04191 C 48.4081 4.40883 47.2863 4.10104 45.9204 4.10104 Z M 45.0983 4.60099 L 45.9204 4.60099 C 47.2076 4.60099 48.2047 4.88566 48.9428 5.43671 C 49.6044 5.9306 49.9388 6.5781 50.0497 7.37195 L 47.7771 7.37195 C 47.6736 7.09263 47.5534 6.81326 47.2721 6.63401 C 46.915 6.39727 46.4581 6.28903 45.9204 6.28903 L 45.0983 6.28903 C 44.4461 6.28903 43.9319 6.4068 43.5738 6.69305 C 43.2356 6.96117 43.0669 7.37707 43.0669 7.86084 C 43.0669 8.31425 43.2167 8.70501 43.5263 8.96036 L 43.5301 8.96406 L 43.5339 8.9659 C 43.8371 9.19809 44.2691 9.33866 44.8401 9.42896 L 44.842 9.42896 L 46.3798 9.6448 C 47.7646 9.84292 48.7558 10.22 49.3624 10.7351 L 49.3662 10.737 L 49.3682 10.7389 C 49.982 11.2359 50.2909 11.9609 50.2909 12.9933 C 50.2909 14.093 49.9292 14.9069 49.1935 15.5097 C 48.4783 16.0933 47.3914 16.4044 45.8995 16.4044 L 44.9465 16.4044 C 44.0661 16.4044 43.3092 16.2653 42.6701 15.993 C 42.0291 15.7198 41.538 15.3513 41.1779 14.8861 L 41.1779 14.8842 C 40.886 14.479 40.7695 13.9857 40.7051 13.4599 L 42.9454 13.4599 C 43.0361 13.788 43.1543 14.1131 43.4561 14.3233 L 43.458 14.3252 L 43.4599 14.3271 C 43.8582 14.593 44.3614 14.7164 44.9465 14.7164 L 45.8996 14.7164 C 46.5974 14.7164 47.1563 14.5828 47.5532 14.2718 C 47.941 13.9678 48.1455 13.5231 48.1455 13.0154 C 48.1455 12.5405 47.9554 12.1258 47.5969 11.8495 C 47.2493 11.5564 46.7488 11.3916 46.1027 11.3163 L 46.1103 11.3163 L 44.6389 11.1005 L 44.637 11.1005 C 43.3097 10.9167 42.3626 10.5627 41.7854 10.0766 C 41.2151 9.59629 40.9216 8.88147 40.9216 7.86092 C 40.9216 6.80359 41.2639 6.034 41.9544 5.47554 L 41.9544 5.4737 L 41.9563 5.4737 C 42.6435 4.90456 43.6796 4.60109 45.0984 4.60109 Z"
         style="-inkscape-font-specification:'JetBrains Mono Bold';baseline-shift:baseline;clip-rule:nonzero;color:#000000;color-interpolation:sRGB;color-interpolation-filters:linearRGB;color-rendering:auto;direction:ltr;display:inline;dominant-baseline:auto;enable-background:accumulate;fill:#000000;fill-opacity:1;fill-rule:nonzero;font-family:'JetBrains Mono';font-feature-settings:normal;font-size:109.858px;font-stretch:normal;font-style:normal;font-variant:normal;font-variant-alternates:normal;font-variant-caps:normal;font-variant-east-asian:normal;font-variant-ligatures:normal;font-variant-numeric:normal;font-variant-position:normal;font-variation-settings:normal;font-weight:bold;image-rendering:auto;inline-size:0;isolation:auto;letter-spacing:normal;line-height:1.25;mix-blend-mode:normal;overflow:visible;shape-margin:0;shape-padding:0;shape-rendering:auto;solid-color:#000000;solid-opacity:1;stop-color:#000000;stop-opacity:1;stroke:none;stroke-dasharray:none;stroke-dashoffset:0;stroke-linecap:butt;stroke-linejoin:miter;stroke-miterlimit:4;stroke-opacity:1;stroke-width:0.5070512255322184;text-align:start;text-anchor:start;text-decoration:none;text-decoration-color:#000000;text-decoration-line:none;text-decoration-style:solid;text-indent:0;text-orientation:mixed;text-rendering:auto;text-transform:none;vector-effect:none;visibility:visible;white-space:normal;word-spacing:normal;writing-mode:lr-tb" />
    </g>
    <g
       id="o2">
      <path
         id="path963"
         style="fill:#000000"
         d="M 39.2232 10.4715 C 39.2232 13.9631 36.3927 16.7935 32.9012 16.7935 C 31.2245 16.7935 29.6164 16.1275 28.4308 14.9419 C 27.2452 13.7563 26.5792 12.1482 26.5792 10.4715 C 26.5792 8.79485 27.2452 7.18682 28.4308 6.00122 C 29.6164 4.81561 31.2245 4.14954 32.9012 4.14954 C 36.3927 4.14954 39.2232 6.98 39.2232 10.4715" />
      <path
         id="path965"
         d="M 32.7056 4.57397 C 31.3826 4.62115 30.1161 5.13841 29.121 6.03831 L 30.8807 6.03831 L 32.7056 5.0712 Z M 33.0967 4.57397 L 33.0967 5.0712 L 34.9217 6.03831 L 36.6814 6.03831 C 35.6863 5.13841 34.4198 4.62115 33.0967 4.57397 Z M 28.7169 6.44139 C 28.1186 7.09497 27.6728 7.88068 27.4134 8.73862 L 28.4562 10.5925 L 29.9553 10.3505 L 31.3239 7.91909 L 30.7765 6.44139 Z M 35.0258 6.44139 L 34.4785 7.91909 L 35.8471 10.3505 L 37.3462 10.5925 L 38.3759 8.75198 C 38.1221 7.8905 37.6808 7.10019 37.0855 6.44139 Z M 31.767 8.18775 L 30.4506 10.5522 L 31.6107 12.6211 L 34.1917 12.6211 L 35.3517 10.5522 L 34.0351 8.18775 Z M 27.2831 9.30286 C 27.2064 9.68736 27.1671 10.079 27.1657 10.4716 C 27.1668 11.4419 27.3996 12.3969 27.8436 13.2523 L 28.3259 12.9569 L 28.2346 11.0089 Z M 38.5193 9.31622 L 37.5677 11.0089 L 37.4764 12.9569 L 37.9589 13.2523 C 38.4028 12.3969 38.6356 11.4419 38.6366 10.4716 C 38.6343 10.0834 38.5951 9.69634 38.5193 9.31622 Z M 31.6107 13.1584 L 30.607 14.4346 L 31.6107 16.2213 C 32.0336 16.3252 32.4664 16.3793 32.9011 16.3824 C 33.3359 16.3793 33.7688 16.3252 34.1917 16.2213 L 35.1953 14.4346 L 34.1917 13.1584 Z M 28.4953 13.3329 L 28.0391 13.6017 C 28.7398 14.7609 29.8084 15.6343 31.0632 16.0735 L 30.1508 14.4211 Z M 37.3071 13.3329 L 35.6517 14.4211 L 34.7392 16.0601 C 35.9919 15.6245 37.0604 14.7559 37.7632 13.6017 Z"
         fill="#ffffff" />
    </g>
  </g>
</svg>
